<svg xmlns="http://www.w3.org/2000/svg" viewBox="0 0 64 64" id="consultation">
  <defs>
    <linearGradient id="a" x1="3" x2="61" y1="61" y2="3" gradientUnits="userSpaceOnUse">
      <stop offset="0" stop-color="#ed1c24"></stop>
      <stop offset="1" stop-color="#00f"></stop>
    </linearGradient>
  </defs>
  <path fill="url(#a)" d="M32.032,36a7.009,7.009,0,0,1-7-7V26a5,5,0,0,1,5-5h4a5,5,0,0,1,5,5v3A7.008,7.008,0,0,1,32.032,36ZM30,37.76V40a2,2,0,0,0,4,0V37.777a8.758,8.758,0,0,1-4-.017ZM45,54a2.99,2.99,0,0,1-.182,1h9.834a.329.329,0,0,0,.329-.329V53.342a6.976,6.976,0,0,0-4.6-6.536A3.027,3.027,0,0,1,48.057,48H48c-.02,0-.04,0-.061,0a2.989,2.989,0,0,1-2.313-1.206,6.827,6.827,0,0,0-1.435.711A12.974,12.974,0,0,1,45,52ZM15.981,42.032A4.036,4.036,0,0,0,20.014,38V35.8a2.647,2.647,0,0,0-1.053-2.106l-.174-.13a2.646,2.646,0,0,0-1.578-.526H14.581a2.63,2.63,0,0,0-2.632,2.632V38A4.036,4.036,0,0,0,15.981,42.032ZM22.032,55h20A.974.974,0,0,0,43,54V52a11.01,11.01,0,0,0-7.349-10.382,3.988,3.988,0,0,1-7.293.018A11.033,11.033,0,0,0,21,52v2A1.03,1.03,0,0,0,22.032,55ZM48.014,42.032A4.036,4.036,0,0,0,52.046,38V35.8a2.647,2.647,0,0,0-1.053-2.106l-.176-.131a2.639,2.639,0,0,0-1.576-.525H46.613a2.632,2.632,0,0,0-2.632,2.632V38A4.036,4.036,0,0,0,48.014,42.032ZM10,25h5a1.006,1.006,0,0,1,.555.168L17,26.132V21a1,1,0,0,0-1-1H10a1,1,0,0,0-1,1v3A1,1,0,0,0,10,25Zm38,0h7a1,1,0,0,0,1-1V20a1,1,0,0,0-1-1H47a1,1,0,0,0-1,1v6.132l1.445-.964A1.006,1.006,0,0,1,48,25Zm-.993,18.876.007,1.118A1,1,0,0,0,48,46a1.03,1.03,0,0,0,1.016-1l-.007-1.122a5.54,5.54,0,0,1-2,0Zm-32.026,0V45a1,1,0,0,0,.985,1,1.029,1.029,0,0,0,1.015-1V43.877a5.54,5.54,0,0,1-2,0ZM61,3V13H3V3ZM9,7H7V9H9Zm4,0H11V9h2ZM50,8a3,3,0,1,0-3,3A3,3,0,0,0,50,8Zm8,0a3,3,0,1,0-3,3A3,3,0,0,0,58,8ZM55,7a1,1,0,1,0,1,1A1,1,0,0,0,55,7ZM47,7a1,1,0,1,0,1,1A1,1,0,0,0,47,7ZM9.329,55h9.857A2.943,2.943,0,0,1,19,54V52a12.881,12.881,0,0,1,.813-4.481,6.877,6.877,0,0,0-1.451-.724A3.026,3.026,0,0,1,16.024,48h-.058c-.021,0-.04,0-.061,0a2.986,2.986,0,0,1-2.3-1.2A6.977,6.977,0,0,0,9,53.342v1.329A.329.329,0,0,0,9.329,55ZM3,15H61V61H3ZM44,28a1,1,0,0,0,1.555.832L48.3,27H55a3,3,0,0,0,3-3V20a3,3,0,0,0-3-3H47a3,3,0,0,0-3,3ZM7,24a3,3,0,0,0,3,3h4.7l2.748,1.832A1,1,0,0,0,19,28V21a3,3,0,0,0-3-3H10a3,3,0,0,0-3,3ZM7,54.671A2.332,2.332,0,0,0,9.329,57H54.652a2.331,2.331,0,0,0,2.329-2.329V53.342a9,9,0,0,0-5.968-8.456L51,43.157A5.966,5.966,0,0,0,53.981,38V35.8a4.586,4.586,0,0,0-1.824-3.652l-.176-.132a4.593,4.593,0,0,0-2.74-.913H46.613a4.567,4.567,0,0,0-4.567,4.567V38A5.964,5.964,0,0,0,45,43.144l.01,1.746a8.824,8.824,0,0,0-1.66.788A12.942,12.942,0,0,0,36,39.628V37.066A9,9,0,0,0,41.032,29V26a7,7,0,0,0-7-7h-4a7,7,0,0,0-7,7v3A9,9,0,0,0,28,37.035v2.614a13.047,13.047,0,0,0-7.347,6.045,8.856,8.856,0,0,0-1.672-.8V43.151A5.965,5.965,0,0,0,21.949,38V35.8a4.583,4.583,0,0,0-1.827-3.653l-.173-.131a4.591,4.591,0,0,0-2.74-.913H14.581a4.567,4.567,0,0,0-4.567,4.567V38a5.967,5.967,0,0,0,2.967,5.151v1.731A9,9,0,0,0,7,53.342Z"></path>
</svg>
