<svg xmlns="http://www.w3.org/2000/svg" xml:space="preserve" viewBox="0 0 100 100" id="repair-tool">
  <path fill="#03ADAD" d="M88 2H12C6.477 2 2 6.477 2 12v76c0 5.523 4.477 10 10 10h76c5.523 0 10-4.477 10-10V12c0-5.523-4.477-10-10-10z"></path>
  <path fill="#04847D" d="M71.955 27.88a6.135 6.135 0 0 0-4.36-1.81c-1.65 0-3.2.64-4.37 1.81l-11.18 11.18-9.9-9.89-.01-.02a8.9 8.9 0 0 0-6.8-3.15c-.6 0-1.18.06-1.74.17-.36.08-.66.34-.76.69-.11.36-.01.74.25 1l3.54 3.55v3.16l-1.36 1.37h-3.17l-3.72-3.73a1 1 0 0 0-.97-.25c-.35.09-.62.36-.71.71a8.874 8.874 0 0 0-.22 3.37 8.868 8.868 0 0 0 3.07 5.7l11.78 11.78-9.73 9.73c-.03-.01-.05-.01-.08-.01-.82 0-1.57.42-1.99 1.12l-3.38 5.5a1 1 0 0 0 .15 1.23l2.62 2.62L53.205 98H88c5.523 0 10-4.477 10-10V53.918L72.205 28.13l-.25-.25z"></path>
  <g fill="#FFF">
    <path d="M33.818 43.74c.5.08 1.02.12 1.52.12.983 0 1.93-.16 2.84-.465l3.354 3.353 5.62-5.62-3.354-3.36a9.02 9.02 0 0 0 .47-2.838c0-4.92-4.01-8.93-8.93-8.93-.6 0-1.18.06-1.74.17-.36.08-.66.34-.76.69-.11.36-.01.74.25 1l3.54 3.55v3.16l-1.36 1.37h-3.17l-3.72-3.73a1 1 0 0 0-.97-.25c-.35.09-.62.36-.71.71a8.873 8.873 0 0 0-.22 3.37c.47 3.9 3.49 7.06 7.34 7.7zM65.068 55.74c-.984 0-1.93.16-2.84.466l-3.346-3.352-5.622 5.622 3.355 3.355a8.728 8.728 0 0 0-.477 2.839c0 4.92 4.01 8.93 8.93 8.93 4.93 0 8.93-4.01 8.93-8.93 0-4.93-4-8.93-8.93-8.93zm4.89 9.43-2.01 3.48c-.18.31-.51.5-.87.5h-4.02c-.36 0-.69-.19-.87-.5l-2.01-3.48a.993.993 0 0 1 0-1l2.01-3.49c.18-.31.51-.5.87-.5h4.02c.36 0 .69.19.87.5l2.01 3.49c.18.31.18.69 0 1zM73.938 32.41c0-1.65-.64-3.2-1.83-4.39l-.15-.14c-1.16-1.16-2.71-1.81-4.36-1.81s-3.2.64-4.37 1.81L41.608 49.5c-.87.89-.87 2.35.01 3.25l.25.24-10.27 10.26c-.03-.01-.05-.01-.08-.01-.82 0-1.57.42-1.99 1.12l-3.38 5.5a1 1 0 0 0 .15 1.23l2.62 2.62c.19.19.45.29.71.29.18 0 .36-.04.52-.14l5.47-3.35c.57-.36.97-.94 1.08-1.61.03-.15.04-.3.02-.45l10.31-10.31.24.24c.44.44 1.01.68 1.63.68.61 0 1.19-.24 1.62-.67l21.61-21.61a6.134 6.134 0 0 0 1.81-4.37zm-5.63.71-18.71 18.7a.976.976 0 0 1-1.41 0 .996.996 0 0 1 0-1.41l18.71-18.71a.996.996 0 0 1 1.41 0c.39.39.39 1.02 0 1.42z"></path>
  </g>
</svg>
